<svg width="30" height="30" viewBox="0 0 30 30" fill="none" xmlns="http://www.w3.org/2000/svg">
<path d="M10.3125 25.3125C10.8303 25.3125 11.25 24.8928 11.25 24.375C11.25 23.8572 10.8303 23.4375 10.3125 23.4375C9.79473 23.4375 9.375 23.8572 9.375 24.375C9.375 24.8928 9.79473 25.3125 10.3125 25.3125Z" stroke="black" stroke-width="1.2" stroke-linecap="round" stroke-linejoin="round"/>
<path d="M23.4375 25.3125C23.9553 25.3125 24.375 24.8928 24.375 24.375C24.375 23.8572 23.9553 23.4375 23.4375 23.4375C22.9197 23.4375 22.5 23.8572 22.5 24.375C22.5 24.8928 22.9197 25.3125 23.4375 25.3125Z" stroke="black" stroke-width="1.2" stroke-linecap="round" stroke-linejoin="round"/>
<path d="M2.8125 4.6875H6.5625L9.375 20.625H24.375" stroke="black" stroke-width="1.2" stroke-linecap="round" stroke-linejoin="round"/>
<path d="M9.375 16.875H23.9906C24.099 16.8751 24.2041 16.8376 24.288 16.7689C24.3718 16.7002 24.4293 16.6045 24.4506 16.4982L26.1381 8.06074C26.1517 7.99271 26.15 7.9225 26.1332 7.85518C26.1164 7.78786 26.0849 7.72511 26.0409 7.67147C25.9969 7.61782 25.9415 7.57461 25.8788 7.54496C25.816 7.51531 25.7475 7.49995 25.6781 7.5H7.5" stroke="black" stroke-width="1.2" stroke-linecap="round" stroke-linejoin="round"/>
</svg>
