<svg width="55" height="56" viewBox="0 0 55 56" fill="none" xmlns="http://www.w3.org/2000/svg">
<path d="M45.925 20.4605V9.66671H35.1542L27.5 2.0813L19.9605 9.66671H9.16671V20.4605L1.5813 28L9.16671 35.6542V46.425H19.9605L27.5 54.0105L35.1542 46.425H45.925V35.6542L53.5105 28L45.925 20.4605ZM20.2355 16.6563C22.4813 16.6563 24.2917 18.4667 24.2917 20.7355C24.2917 21.8112 23.8644 22.843 23.1037 23.6037C22.343 24.3644 21.3112 24.7917 20.2355 24.7917C17.9667 24.7917 16.1563 22.9813 16.1563 20.7355C16.1563 18.4667 17.9667 16.6563 20.2355 16.6563ZM34.8792 39.4584C32.6334 39.4584 30.823 37.625 30.823 35.3792C30.823 34.3034 31.2503 33.2717 32.011 32.511C32.7717 31.7503 33.8034 31.323 34.8792 31.323C37.125 31.323 38.9584 33.1334 38.9584 35.3792C38.9584 36.4611 38.5286 37.4986 37.7636 38.2636C36.9986 39.0286 35.9611 39.4584 34.8792 39.4584ZM19.4792 39.5271L16.0417 36.0896L35.5896 16.5417L39.0271 19.9792L19.4792 39.5271Z" fill="#FFD034"/>
</svg>
