<svg width="30" height="30" viewBox="0 0 30 30" fill="none" xmlns="http://www.w3.org/2000/svg">
<path d="M15.7455 25.2046L25.1115 15.7486C26.326 14.5078 27.0041 12.8393 26.9993 11.1031C26.9945 9.36686 26.3074 7.70211 25.086 6.46806C24.4865 5.85655 23.7714 5.37035 22.9823 5.03776C22.1932 4.70516 21.3458 4.5328 20.4895 4.5307C19.6331 4.52861 18.7849 4.69682 17.9942 5.02556C17.2035 5.3543 16.486 5.83699 15.8835 6.44556L14.9895 7.35006L14.082 6.43506L13.932 6.28656C12.7096 5.11805 11.0772 4.47635 9.38631 4.49964C7.69541 4.52292 6.08129 5.20933 4.89152 6.41106C2.35952 8.96856 2.37152 13.1251 4.91552 15.6946L14.331 25.2046C14.721 25.5991 15.3555 25.5991 15.7455 25.2046ZM16.95 7.50006C17.4131 7.03263 17.9646 6.66202 18.5723 6.40984C19.18 6.15765 19.8318 6.02892 20.4898 6.03116C21.1478 6.03339 21.7987 6.16654 22.4047 6.42285C23.0107 6.67916 23.5596 7.0535 24.0195 7.52406C24.9626 8.47745 25.4936 9.7631 25.4981 11.1042C25.5026 12.4452 24.9802 13.7344 24.0435 14.6941V14.6971L15.0375 23.7871L5.98052 14.6386C4.01102 12.6496 4.00952 9.43356 5.95802 7.46556C6.4203 6.99863 6.9709 6.6284 7.57774 6.37646C8.18458 6.12453 8.8355 5.99593 9.49256 5.99816C10.1496 6.00039 10.7996 6.13342 11.4048 6.38947C12.0099 6.64553 12.5579 7.01949 13.017 7.48956L14.457 8.94456C14.5268 9.01508 14.6098 9.07107 14.7014 9.10928C14.7929 9.14749 14.8911 9.16717 14.9903 9.16717C15.0895 9.16717 15.1877 9.14749 15.2792 9.10928C15.3707 9.07107 15.4538 9.01508 15.5235 8.94456L16.95 7.50006Z" fill="black"/>
</svg>
