<svg width="25" height="25" viewBox="0 0 25 25" fill="none" xmlns="http://www.w3.org/2000/svg">
<path d="M8.12504 2.0835H16.875C20.2084 2.0835 22.9167 4.79183 22.9167 8.12516V16.8752C22.9167 18.4775 22.2802 20.0142 21.1471 21.1473C20.0141 22.2803 18.4774 22.9168 16.875 22.9168H8.12504C4.79171 22.9168 2.08337 20.2085 2.08337 16.8752V8.12516C2.08337 6.52281 2.71991 4.98609 3.85294 3.85306C4.98597 2.72003 6.52269 2.0835 8.12504 2.0835ZM7.91671 4.16683C6.92215 4.16683 5.96832 4.56192 5.26506 5.26518C4.5618 5.96844 4.16671 6.92227 4.16671 7.91683V17.0835C4.16671 19.1564 5.84379 20.8335 7.91671 20.8335H17.0834C18.0779 20.8335 19.0318 20.4384 19.735 19.7351C20.4383 19.0319 20.8334 18.0781 20.8334 17.0835V7.91683C20.8334 5.84391 19.1563 4.16683 17.0834 4.16683H7.91671ZM17.9688 5.72933C18.3141 5.72933 18.6453 5.86651 18.8895 6.1107C19.1337 6.35489 19.2709 6.68608 19.2709 7.03141C19.2709 7.37675 19.1337 7.70794 18.8895 7.95213C18.6453 8.19631 18.3141 8.3335 17.9688 8.3335C17.6235 8.3335 17.2923 8.19631 17.0481 7.95213C16.8039 7.70794 16.6667 7.37675 16.6667 7.03141C16.6667 6.68608 16.8039 6.35489 17.0481 6.1107C17.2923 5.86651 17.6235 5.72933 17.9688 5.72933ZM12.5 7.29183C13.8814 7.29183 15.2061 7.84056 16.1829 8.81732C17.1596 9.79407 17.7084 11.1188 17.7084 12.5002C17.7084 13.8815 17.1596 15.2063 16.1829 16.183C15.2061 17.1598 13.8814 17.7085 12.5 17.7085C11.1187 17.7085 9.79395 17.1598 8.81719 16.183C7.84044 15.2063 7.29171 13.8815 7.29171 12.5002C7.29171 11.1188 7.84044 9.79407 8.81719 8.81732C9.79395 7.84056 11.1187 7.29183 12.5 7.29183ZM12.5 9.37516C11.6712 9.37516 10.8764 9.7044 10.2903 10.2905C9.70428 10.8765 9.37504 11.6714 9.37504 12.5002C9.37504 13.329 9.70428 14.1238 10.2903 14.7099C10.8764 15.2959 11.6712 15.6252 12.5 15.6252C13.3288 15.6252 14.1237 15.2959 14.7098 14.7099C15.2958 14.1238 15.625 13.329 15.625 12.5002C15.625 11.6714 15.2958 10.8765 14.7098 10.2905C14.1237 9.7044 13.3288 9.37516 12.5 9.37516Z" fill="black"/>
</svg>
