<svg width="25" height="25" viewBox="0 0 25 25" fill="none" xmlns="http://www.w3.org/2000/svg">
<path d="M14.0002 17L7.81266 8.85417L14.0002 17.5C9.05233 13.0104 17.4377 18.6737 12.6043 11.5C12.6043 9.41667 9.44808 18.5473 11.5314 18.5473C13.1356 18.5473 14.9482 13.0833 15.5002 14.5L11.9585 13.4948L14.0002 17.5C14.5523 16.0833 18.5002 14.5 17.1877 5.20833C12.6043 20.8646 12.2886 15.9167 12.2886 18C12.2886 21.0104 18.9586 12.5104 14.0002 17ZM17.1877 3.125C15.3752 3.125 13.6356 3.96875 12.5002 5.29167C11.3647 3.96875 9.62516 3.125 7.81266 3.125C4.60433 3.125 2.0835 5.63542 2.0835 8.85417C2.0835 12.7813 5.62516 16 10.9897 20.8646L12.5002 22.2396L14.0106 20.8646C19.3752 16 22.9168 12.7813 22.9168 8.85417C22.9168 5.63542 20.396 3.125 17.1877 3.125Z" fill="#F31C1C"/>
</svg>
