<svg width="31" height="31" viewBox="0 0 31 31" fill="none" xmlns="http://www.w3.org/2000/svg">
<path d="M24.8563 25.6924L17.0288 17.8649C16.4038 18.3974 15.685 18.8095 14.8725 19.1012C14.06 19.3929 13.2433 19.5387 12.4225 19.5387C10.4208 19.5387 8.72668 18.8458 7.34001 17.4599C5.95334 16.0741 5.26001 14.3804 5.26001 12.3787C5.26001 10.377 5.95251 8.68243 7.33751 7.29493C8.72251 5.90743 10.4158 5.21285 12.4175 5.21118C14.4192 5.20952 16.1142 5.90285 17.5025 7.29118C18.8908 8.67952 19.585 10.3741 19.585 12.3749C19.585 13.2433 19.4313 14.0837 19.1238 14.8962C18.8163 15.7087 18.4121 16.4037 17.9113 16.9812L25.7388 24.8074L24.8563 25.6924ZM12.4238 18.2874C14.0821 18.2874 15.4821 17.7166 16.6238 16.5749C17.7654 15.4333 18.3363 14.0329 18.3363 12.3737C18.3363 10.7145 17.7654 9.31452 16.6238 8.17368C15.4821 7.03285 14.0821 6.46202 12.4238 6.46118C10.7654 6.46035 9.36501 7.03118 8.22251 8.17368C7.08001 9.31618 6.50918 10.7162 6.51001 12.3737C6.51084 14.0312 7.08168 15.4312 8.22251 16.5737C9.36334 17.7162 10.7633 18.287 12.4225 18.2862" fill="#7E7E7E"/>
</svg>
