<svg width="30" height="30" viewBox="0 0 30 30" fill="none" xmlns="http://www.w3.org/2000/svg">
<path d="M6.5625 26.25V25.3125C6.5625 23.3234 7.35268 21.4157 8.7592 20.0092C10.1657 18.6027 12.0734 17.8125 14.0625 17.8125H15.9375C17.9266 17.8125 19.8343 18.6027 21.2408 20.0092C22.6473 21.4157 23.4375 23.3234 23.4375 25.3125V26.25M19.6875 9.375C19.6875 10.6182 19.1936 11.8105 18.3146 12.6896C17.4355 13.5686 16.2432 14.0625 15 14.0625C13.7568 14.0625 12.5645 13.5686 11.6854 12.6896C10.8064 11.8105 10.3125 10.6182 10.3125 9.375C10.3125 8.1318 10.8064 6.93951 11.6854 6.06044C12.5645 5.18136 13.7568 4.6875 15 4.6875C16.2432 4.6875 17.4355 5.18136 18.3146 6.06044C19.1936 6.93951 19.6875 8.1318 19.6875 9.375Z" stroke="black" stroke-width="1.5"/>
</svg>
